<?xml version="1.0" standalone="no"?>
<!DOCTYPE svg PUBLIC "-//W3C//DTD SVG 20010904//EN"
 "http://www.w3.org/TR/2001/REC-SVG-20010904/DTD/svg10.dtd">
<svg version="1.0" xmlns="http://www.w3.org/2000/svg"
 width="647.000000pt" height="647.000000pt" viewBox="0 0 647.000000 647.000000"
 preserveAspectRatio="xMidYMid meet">
<metadata>
Created by potrace 1.11, written by Peter Selinger 2001-2013
</metadata>
<g transform="translate(0.000000,647.000000) scale(0.100000,-0.100000)"
fill="#000000" stroke="none">
<path d="M5850 5354 c-338 -113 -622 -207 -630 -209 -27 -8 -894 -297 -915
-305 -11 -5 -780 -262 -1710 -571 -1435 -477 -2560 -852 -2587 -861 -4 -2 10
-23 31 -48 21 -25 189 -223 372 -440 184 -217 344 -406 356 -420 89 -104 225
-265 258 -306 22 -26 49 -58 60 -70 23 -25 23 -26 164 -194 58 -69 121 -143
140 -165 20 -22 57 -65 82 -95 26 -30 101 -120 169 -200 67 -80 131 -156 143
-170 12 -14 81 -94 152 -179 72 -85 141 -167 155 -182 l25 -28 245 612 c134
337 250 628 259 647 8 19 15 37 16 40 1 3 5 14 10 25 4 11 26 65 47 120 22 55
46 114 53 130 7 17 48 120 92 230 l78 200 95 -114 c52 -62 111 -132 131 -155
20 -22 77 -88 125 -146 130 -154 286 -339 479 -565 23 -27 73 -86 110 -130 37
-44 86 -102 110 -130 143 -169 464 -548 499 -589 22 -27 46 -54 51 -60 6 -6
28 -32 49 -58 21 -27 42 -48 46 -48 4 0 13 15 20 33 7 17 21 50 30 72 9 22 27
67 40 100 12 33 28 74 35 90 7 17 88 219 180 450 91 231 172 434 179 450 8 17
55 136 106 265 51 129 96 239 101 244 5 6 9 16 9 24 0 8 7 30 16 50 9 21 20
46 25 57 4 11 63 157 130 325 66 168 127 318 135 334 8 16 14 33 14 37 0 4 38
101 84 216 46 114 157 390 245 613 89 223 166 414 171 425 42 96 342 856 337
855 -1 0 -279 -93 -617 -206z"/>
</g>
</svg>
